<svg xmlns="http://www.w3.org/2000/svg" xmlns:xlink="http://www.w3.org/1999/xlink" width="42.934" height="44" viewBox="0 0 42.934 44">
  <defs>
    <filter id="Ellipse_6" x="0" y="0" width="42.934" height="44" filterUnits="userSpaceOnUse">
      <feOffset dy="3" input="SourceAlpha"/>
      <feGaussianBlur stdDeviation="3" result="blur"/>
      <feFlood flood-opacity="0.161"/>
      <feComposite operator="in" in2="blur"/>
      <feComposite in="SourceGraphic"/>
    </filter>
  </defs>
  <g id="Group_675" data-name="Group 675" transform="translate(-971 -3)">
    <g transform="matrix(1, 0, 0, 1, 971, 3)" filter="url(#Ellipse_6)">
      <ellipse id="Ellipse_6-2" data-name="Ellipse 6" cx="12.467" cy="13" rx="12.467" ry="13" transform="translate(9 6)" fill="#414141"/>
    </g>
    <path id="heart-sharp" d="M10.66,17.949l-.315-.21a21.676,21.676,0,0,1-4.8-3.794,8.2,8.2,0,0,1-2.171-5.5A3.952,3.952,0,0,1,7.265,4.5,4.415,4.415,0,0,1,10.66,6.189,4.415,4.415,0,0,1,14.054,4.5a3.952,3.952,0,0,1,3.89,3.946,8.193,8.193,0,0,1-2.171,5.5,21.639,21.639,0,0,1-4.8,3.795Z" transform="translate(982.182 11.445)" fill="#fff"/>
  </g>
</svg>
